<svg width="36" height="36" fill="rgb(20, 143, 43)" viewBox="0 0 36 36" xmlns="http://www.w3.org/2000/svg" focusable="false"><path fill-rule="evenodd" clip-rule="evenodd" d="M28 9a3 3 0 0 1 2.995 2.824L31 12v13a3 3 0 0 1-2.824 2.995L28 28h-6a1 1 0 0 1-.117-1.993L22 26h6c.512 0 .935-.387.993-.884L29 25V12c0-.512-.387-.935-.884-.993L28 11H8a1 1 0 0 0-.993.883L7 12v13c0 .512.387.935.883.993L8 26h7.772l-1.186-1.336a1 1 0 0 1-.006-1.322l.089-.09a1 1 0 0 1 1.322-.005l.09.089 2.666 3a1 1 0 0 1 .078 1.23l-.078.098-2.667 3a1 1 0 0 1-1.572-1.23l.078-.098L15.772 28H8a3 3 0 0 1-2.995-2.824L5 25V12a3.001 3.001 0 0 1 2.824-2.995L8 9h20Zm-1 5v2H9v-2h18Z"></path></svg>