<svg width="36" height="36" viewBox="0 0 36 36" xmlns="http://www.w3.org/2000/svg" focusable="false"><path fill-rule="evenodd" clip-rule="evenodd" d="M7 18c0-6.075 4.925-11 11-11 2.25 0 4.34.675 6.082 1.833a1 1 0 0 0 1.107-1.666A12.944 12.944 0 0 0 18 5C10.82 5 5 10.82 5 18s5.82 13 13 13 13-5.82 13-13c0-.119-.002-.237-.005-.355a1 1 0 1 0-1.999.053c.003.1.004.201.004.302 0 6.075-4.925 11-11 11S7 24.075 7 18Zm21.723-4.967a1 1 0 0 0-1.166-1.625l-9.585 6.881-2.927-1.902a1 1 0 1 0-1.09 1.676l3.5 2.275a1 1 0 0 0 1.128-.026l10.14-7.28Z"></path></svg>