<svg width="36px" height="36px" viewBox="0 0 36 36" preserveAspectRatio="xMidYMid meet" xmlns="http://www.w3.org/2000/svg"><g fill="none"><path d="M0 4C0 1.79086 1.79086 0 4 0H32C34.2091 0 36 1.79086 36 4V32C36 34.2091 34.2091 36 32 36H4C1.79086 36 0 34.2091 0 32V4Z" fill="#F6AB71"></path><path d="M26.84 10.6101C26.3292 10.0991 25.7228 9.69376 25.0554 9.4172C24.3879 9.14064 23.6725 8.99829 22.95 8.99829C22.2275 8.99829 21.5121 9.14064 20.8446 9.4172C20.1772 9.69376 19.5708 10.0991 19.06 10.6101L18 11.6701L16.94 10.6101C15.9083 9.57842 14.509 8.99883 13.05 8.99883C11.591 8.99883 10.1917 9.57842 9.16 10.6101C8.1283 11.6418 7.54871 13.0411 7.54871 14.5001C7.54871 15.9591 8.1283 17.3584 9.16 18.3901L10.22 19.4501L18 27.2301L25.78 19.4501L26.84 18.3901C27.351 17.8794 27.7563 17.2729 28.0329 16.6055C28.3095 15.938 28.4518 15.2226 28.4518 14.5001C28.4518 13.7776 28.3095 13.0622 28.0329 12.3948C27.7563 11.7273 27.351 11.1209 26.84 10.6101V10.6101Z" stroke="white" stroke-width="1.5" stroke-linecap="round" stroke-linejoin="round"></path></g></svg>