<svg width="36" height="36" viewBox="0 0 36 36" xmlns="http://www.w3.org/2000/svg" focusable="false"><path fill='rgb(20, 143, 43)' fill-rule="evenodd" clip-rule="evenodd" d="M22 14.5c-.5 0-.9.4-1 .9v7.1c0 .6.4 1 1 1 .5 0 .9-.4 1-.9v-7.1c0-.6-.4-1-1-1Zm-8-2c-.6 0-1 .4-1 1v7c0 .6.4 1 1 1s1-.4 1-1v-7c0-.6-.4-1-1-1ZM18 0C8.1 0 0 8.1 0 18s8.1 18 18 18 18-8.1 18-18S27.9 0 18 0Zm8.7 25.1L21 27l-6-2.1-4 1.5c-.2.1-.4.1-.5.1-.8 0-1.4-.6-1.5-1.4V11.4c0-.2.1-.4.3-.5L15 9l6 2.1 4-1.5c.2-.1.4-.1.5-.1.8 0 1.4.6 1.5 1.4v13.8c0 .2-.1.3-.3.4Z"></path></svg>