<svg xmlns="http://www.w3.org/2000/svg">
  <symbol id="transfer-between" viewBox="0 0 36 36">
    <g fill-rule="evenodd">
        <path fill-rule="nonzero" d="M19 25.586c0 1.781 2.154 2.674 3.414 1.414l8.293-8.283a1 1 0 0 0 0-1.414L22.416 9C21.155 7.74 19 8.632 19 10.414v5.584h2v-5.584l7.586 7.595L21 25.586V22.01a1 1 0 0 0-1-1H9v2h10v2.577ZM7.412 14l1.295-1.295a1 1 0 1 0-1.414-1.414l-3 3a1 1 0 0 0 0 1.414l3 3a1 1 0 0 0 1.414-1.414L7.416 16 17 15.998v-2L7.412 14Z"></path>
    </g>
  </symbol>
   <symbol id="transfer-to-client" viewBox="0 0 36 36">
    <g fill-rule="evenodd">
        <path  d="M7 18c0-6.075 4.925-11 11-11 2.25 0 4.34.675 6.082 1.833a1 1 0 0 0 1.107-1.666A12.944 12.944 0 0 0 18 5C10.82 5 5 10.82 5 18s5.82 13 13 13 13-5.82 13-13c0-.119-.002-.237-.005-.355a1 1 0 1 0-1.999.053c.003.1.004.201.004.302 0 6.075-4.925 11-11 11S7 24.075 7 18Zm21.723-4.967a1 1 0 0 0-1.166-1.625l-9.585 6.881-2.927-1.902a1 1 0 1 0-1.09 1.676l3.5 2.275a1 1 0 0 0 1.128-.026l10.14-7.28Z"></path>
    </g>
  </symbol>
  <symbol id="transfer-to-a-non-bank-client" viewBox="0 0 36 36">
      <g fill-rule="evenodd">
        <path fill-rule="evenodd" clip-rule="evenodd" d="M29.878 12.479a1 1 0 0 1-1.357.399L18 7.139 7.479 12.878a1 1 0 1 1-.958-1.756l11-6a1 1 0 0 1 .958 0l11 6a1 1 0 0 1 .399 1.357ZM11 15v6a1 1 0 1 1-2 0v-6a1 1 0 1 1 2 0Zm4 1v5a1 1 0 1 1-2 0v-5a1 1 0 0 1 2 0Zm4 5v-5a1 1 0 1 0-2 0v5a1 1 0 0 0 2 0Zm4-5v5a1 1 0 1 1-2 0v-5a1 1 0 0 1 2 0Zm4 5v-6a1 1 0 1 0-2 0v6a1 1 0 0 0 2 0Zm1 5a1 1 0 1 0 0-2H8a1 1 0 1 0 0 2h20Zm2 3a1 1 0 0 1-1 1H7a1 1 0 1 1 0-2h22a1 1 0 0 1 1 1Z"></path>
      </g>
  </symbol>
</svg>


